<svg xmlns="http://www.w3.org/2000/svg" xmlns:xlink="http://www.w3.org/1999/xlink" width="1200" height="630" viewBox="0 0 1200 630">
  <defs>
    <linearGradient id="bg" x1="0" y1="0" x2="0" y2="1">
      <stop offset="0%" stop-color="#050814"/>
      <stop offset="100%" stop-color="#141A33"/>
    </linearGradient>
    <clipPath id="circle">
      <circle cx="250" cy="315" r="175"/>
    </clipPath>
  </defs>
  <rect width="1200" height="630" fill="url(#bg)"/>
  <!-- grid dots -->
  <g fill="#1E293B" opacity="0.3">
    <circle cx="40" cy="40" r="1.5"/><circle cx="120" cy="40" r="1.5"/><circle cx="200" cy="40" r="1.5"/><circle cx="280" cy="40" r="1.5"/><circle cx="360" cy="40" r="1.5"/>
    <circle cx="40" cy="120" r="1.5"/><circle cx="200" cy="120" r="1.5"/><circle cx="280" cy="120" r="1.5"/><circle cx="360" cy="120" r="1.5"/>
    <circle cx="40" cy="200" r="1.5"/><circle cx="120" cy="200" r="1.5"/><circle cx="200" cy="200" r="1.5"/><circle cx="280" cy="200" r="1.5"/><circle cx="360" cy="200" r="1.5"/>
    <circle cx="40" cy="280" r="1.5"/><circle cx="120" cy="280" r="1.5"/><circle cx="280" cy="280" r="1.5"/><circle cx="360" cy="280" r="1.5"/>
    <circle cx="40" cy="360" r="1.5"/><circle cx="120" cy="360" r="1.5"/><circle cx="200" cy="360" r="1.5"/><circle cx="280" cy="360" r="1.5"/><circle cx="360" cy="360" r="1.5"/>
    <circle cx="40" cy="440" r="1.5"/><circle cx="120" cy="440" r="1.5"/><circle cx="200" cy="440" r="1.5"/><circle cx="280" cy="440" r="1.5"/><circle cx="360" cy="440" r="1.5"/>
    <circle cx="40" cy="520" r="1.5"/><circle cx="120" cy="520" r="1.5"/><circle cx="200" cy="520" r="1.5"/><circle cx="280" cy="520" r="1.5"/><circle cx="360" cy="520" r="1.5"/>
    <circle cx="40" cy="600" r="1.5"/><circle cx="120" cy="600" r="1.5"/><circle cx="200" cy="600" r="1.5"/><circle cx="280" cy="600" r="1.5"/><circle cx="360" cy="600" r="1.5"/>
  </g>
  <image x="75" y="140" width="350" height="350" clip-path="url(#circle)" xlink:href="../profile.png" preserveAspectRatio="xMidYMid slice"/>
  <circle cx="250" cy="315" r="178" fill="none" stroke="#0074FF" stroke-width="3"/>
  <text x="490" y="200" font-family="Helvetica,Arial,sans-serif" font-size="48" font-weight="700" fill="#F1F5F9">Ayman Elmasry</text>
  <rect x="490" y="258" width="265" height="2" rx="1" fill="#0074FF"/>
  <text x="490" y="285" font-family="Helvetica,Arial,sans-serif" font-size="20" fill="#94A3B8">Visionary Architect · AI Orchestrator · Brand Designer</text>
  <text x="490" y="322" font-family="Helvetica,Arial,sans-serif" font-size="15" fill="#64748B" letter-spacing="2">FOUNDER — AEL DIGITAL STUDIO</text>
  <text x="80" y="570" font-family="Helvetica,Arial,sans-serif" font-size="14" fill="#0074FF" letter-spacing="1">aymanelmasry.me</text>
  <rect x="1" y="1" width="1198" height="628" rx="4" fill="none" stroke="#0074FF" stroke-width="0.5" opacity="0.2"/>
</svg>
