<svg xmlns="http://www.w3.org/2000/svg" xmlns:xlink="http://www.w3.org/1999/xlink" width="1050" height="600" viewBox="0 0 1050 600">
  <defs>
    <linearGradient id="bg" x1="0" y1="0" x2="1" y2="1">
      <stop offset="0%" stop-color="#050814"/>
      <stop offset="100%" stop-color="#0A1128"/>
    </linearGradient>
    <linearGradient id="accent" x1="0" y1="0" x2="1" y2="0">
      <stop offset="0%" stop-color="#0074FF"/>
      <stop offset="100%" stop-color="#00A3FF"/>
    </linearGradient>
    <clipPath id="circle">
      <circle cx="195" cy="300" r="95"/>
    </clipPath>
  </defs>

  <!-- Background -->
  <rect width="1050" height="600" fill="url(#bg)" rx="12"/>

  <!-- Subtle border -->
  <rect x="2" y="2" width="1046" height="596" rx="10" fill="none" stroke="#0074FF" stroke-width="0.5" opacity="0.15"/>

  <!-- Top accent bar -->
  <rect x="0" y="0" width="1050" height="4" fill="url(#accent)"/>

  <!-- Bottom accent -->
  <rect x="0" y="596" width="1050" height="4" fill="url(#accent)"/>

  <!-- Left accent vertical -->
  <rect x="0" y="0" width="4" height="600" fill="url(#accent)" opacity="0.3"/>

  <!-- Profile photo (centered vertically) -->
  <image x="100" y="205" width="190" height="190" clip-path="url(#circle)" xlink:href="../profile.png" preserveAspectRatio="xMidYMid slice"/>
  <circle cx="195" cy="300" r="98" fill="none" stroke="#0074FF" stroke-width="2" opacity="0.4"/>
  <circle cx="195" cy="300" r="95" fill="none" stroke="#0074FF" stroke-width="1" opacity="0.6"/>

  <!-- Name -->
  <text x="330" y="220" font-family="Inter,Helvetica,Arial,sans-serif" font-size="40" font-weight="700" fill="#F1F5F9" letter-spacing="-0.5">Ayman Elmasry</text>

  <!-- Title -->
  <text x="330" y="256" font-family="Inter,Helvetica,Arial,sans-serif" font-size="17" fill="#94A3B8" letter-spacing="0.3">Visionary Architect · AI Orchestrator · Brand Designer</text>

  <!-- Divider -->
  <rect x="330" y="272" width="200" height="2" rx="1" fill="url(#accent)" opacity="0.6"/>

  <!-- Contact -->
  <text x="330" y="300" font-family="Inter,Helvetica,Arial,sans-serif" font-size="14" fill="#64748B" letter-spacing="0.3">
    <tspan fill="#0074FF">✉</tspan> ayman@aymanelmasry.me
  </text>
  <text x="330" y="322" font-family="Inter,Helvetica,Arial,sans-serif" font-size="14" fill="#64748B" letter-spacing="0.3">
    <tspan fill="#0074FF">◈</tspan> aymanelmasry.me
  </text>
  <text x="330" y="344" font-family="Inter,Helvetica,Arial,sans-serif" font-size="14" fill="#64748B" letter-spacing="0.3">
    <tspan fill="#0074FF">◆</tspan> aymanelmasry.com
  </text>

  <!-- Social handles -->
  <text x="330" y="382" font-family="Inter,Helvetica,Arial,sans-serif" font-size="11" fill="#475569" letter-spacing="0.3">
    <tspan fill="#0074FF">▸</tspan> GitHub &amp; LinkedIn &amp; X — @aymanelmasryael
  </text>

  <!-- AEL brand mark -->
  <rect x="330" y="400" width="130" height="22" rx="11" fill="none" stroke="#0074FF" stroke-width="0.5" opacity="0.3"/>
  <text x="395" y="415" font-family="Inter,Helvetica,Arial,sans-serif" font-size="9" fill="#0074FF" text-anchor="middle" letter-spacing="2" opacity="0.6">AEL DIGITAL STUDIO</text>

  <!-- QR Code at bottom-right (larger) -->
  <g transform="translate(780, 320) scale(2)">
    <rect x="-2" y="-2" width="37" height="37" rx="4" fill="#050814" stroke="#0074FF" stroke-width="0.5" opacity="0.3"/>
    <g id="QRcode">
      <rect x="0" y="0" width="33" height="33" fill="#ffffff"/>
      <g id="Pattern" transform="translate(4,4)">
        <rect x="0" y="0" width="1" height="1" fill="#0074FF"/><rect x="1" y="0" width="1" height="1" fill="#0074FF"/><rect x="2" y="0" width="1" height="1" fill="#0074FF"/><rect x="3" y="0" width="1" height="1" fill="#0074FF"/><rect x="4" y="0" width="1" height="1" fill="#0074FF"/><rect x="5" y="0" width="1" height="1" fill="#0074FF"/><rect x="6" y="0" width="1" height="1" fill="#0074FF"/>
        <rect x="8" y="0" width="1" height="1" fill="#0074FF"/><rect x="11" y="0" width="1" height="1" fill="#0074FF"/><rect x="12" y="0" width="1" height="1" fill="#0074FF"/><rect x="13" y="0" width="1" height="1" fill="#0074FF"/>
        <rect x="18" y="0" width="1" height="1" fill="#0074FF"/><rect x="19" y="0" width="1" height="1" fill="#0074FF"/><rect x="20" y="0" width="1" height="1" fill="#0074FF"/><rect x="21" y="0" width="1" height="1" fill="#0074FF"/>
        <rect x="22" y="0" width="1" height="1" fill="#0074FF"/><rect x="23" y="0" width="1" height="1" fill="#0074FF"/><rect x="24" y="0" width="1" height="1" fill="#0074FF"/>
        <rect x="0" y="1" width="1" height="1" fill="#0074FF"/><rect x="6" y="1" width="1" height="1" fill="#0074FF"/><rect x="9" y="1" width="1" height="1" fill="#0074FF"/><rect x="10" y="1" width="1" height="1" fill="#0074FF"/>
        <rect x="14" y="1" width="1" height="1" fill="#0074FF"/><rect x="16" y="1" width="1" height="1" fill="#0074FF"/><rect x="18" y="1" width="1" height="1" fill="#0074FF"/><rect x="24" y="1" width="1" height="1" fill="#0074FF"/>
        <rect x="0" y="2" width="1" height="1" fill="#0074FF"/><rect x="2" y="2" width="1" height="1" fill="#0074FF"/><rect x="3" y="2" width="1" height="1" fill="#0074FF"/><rect x="4" y="2" width="1" height="1" fill="#0074FF"/>
        <rect x="6" y="2" width="1" height="1" fill="#0074FF"/><rect x="10" y="2" width="1" height="1" fill="#0074FF"/><rect x="12" y="2" width="1" height="1" fill="#0074FF"/><rect x="13" y="2" width="1" height="1" fill="#0074FF"/>
        <rect x="14" y="2" width="1" height="1" fill="#0074FF"/><rect x="15" y="2" width="1" height="1" fill="#0074FF"/><rect x="16" y="2" width="1" height="1" fill="#0074FF"/><rect x="18" y="2" width="1" height="1" fill="#0074FF"/>
        <rect x="20" y="2" width="1" height="1" fill="#0074FF"/><rect x="21" y="2" width="1" height="1" fill="#0074FF"/><rect x="22" y="2" width="1" height="1" fill="#0074FF"/><rect x="24" y="2" width="1" height="1" fill="#0074FF"/>
        <rect x="0" y="3" width="1" height="1" fill="#0074FF"/><rect x="2" y="3" width="1" height="1" fill="#0074FF"/><rect x="3" y="3" width="1" height="1" fill="#0074FF"/><rect x="4" y="3" width="1" height="1" fill="#0074FF"/>
        <rect x="6" y="3" width="1" height="1" fill="#0074FF"/><rect x="12" y="3" width="1" height="1" fill="#0074FF"/><rect x="13" y="3" width="1" height="1" fill="#0074FF"/><rect x="16" y="3" width="1" height="1" fill="#0074FF"/>
        <rect x="18" y="3" width="1" height="1" fill="#0074FF"/><rect x="20" y="3" width="1" height="1" fill="#0074FF"/><rect x="21" y="3" width="1" height="1" fill="#0074FF"/><rect x="22" y="3" width="1" height="1" fill="#0074FF"/>
        <rect x="24" y="3" width="1" height="1" fill="#0074FF"/>
        <rect x="0" y="4" width="1" height="1" fill="#0074FF"/><rect x="2" y="4" width="1" height="1" fill="#0074FF"/><rect x="3" y="4" width="1" height="1" fill="#0074FF"/><rect x="4" y="4" width="1" height="1" fill="#0074FF"/>
        <rect x="6" y="4" width="1" height="1" fill="#0074FF"/><rect x="9" y="4" width="1" height="1" fill="#0074FF"/><rect x="11" y="4" width="1" height="1" fill="#0074FF"/><rect x="16" y="4" width="1" height="1" fill="#0074FF"/>
        <rect x="18" y="4" width="1" height="1" fill="#0074FF"/><rect x="20" y="4" width="1" height="1" fill="#0074FF"/><rect x="21" y="4" width="1" height="1" fill="#0074FF"/><rect x="22" y="4" width="1" height="1" fill="#0074FF"/>
        <rect x="24" y="4" width="1" height="1" fill="#0074FF"/>
        <rect x="0" y="5" width="1" height="1" fill="#0074FF"/><rect x="6" y="5" width="1" height="1" fill="#0074FF"/><rect x="10" y="5" width="1" height="1" fill="#0074FF"/>
        <rect x="12" y="5" width="1" height="1" fill="#0074FF"/><rect x="13" y="5" width="1" height="1" fill="#0074FF"/><rect x="18" y="5" width="1" height="1" fill="#0074FF"/><rect x="24" y="5" width="1" height="1" fill="#0074FF"/>
        <rect x="0" y="6" width="1" height="1" fill="#0074FF"/><rect x="1" y="6" width="1" height="1" fill="#0074FF"/><rect x="2" y="6" width="1" height="1" fill="#0074FF"/><rect x="3" y="6" width="1" height="1" fill="#0074FF"/>
        <rect x="4" y="6" width="1" height="1" fill="#0074FF"/><rect x="5" y="6" width="1" height="1" fill="#0074FF"/><rect x="6" y="6" width="1" height="1" fill="#0074FF"/>
        <rect x="8" y="6" width="1" height="1" fill="#0074FF"/><rect x="10" y="6" width="1" height="1" fill="#0074FF"/>
        <rect x="12" y="6" width="1" height="1" fill="#0074FF"/><rect x="14" y="6" width="1" height="1" fill="#0074FF"/><rect x="16" y="6" width="1" height="1" fill="#0074FF"/>
        <rect x="18" y="6" width="1" height="1" fill="#0074FF"/><rect x="19" y="6" width="1" height="1" fill="#0074FF"/><rect x="20" y="6" width="1" height="1" fill="#0074FF"/>
        <rect x="21" y="6" width="1" height="1" fill="#0074FF"/><rect x="22" y="6" width="1" height="1" fill="#0074FF"/><rect x="23" y="6" width="1" height="1" fill="#0074FF"/><rect x="24" y="6" width="1" height="1" fill="#0074FF"/>
        <rect x="8" y="7" width="1" height="1" fill="#0074FF"/><rect x="10" y="7" width="1" height="1" fill="#0074FF"/><rect x="11" y="7" width="1" height="1" fill="#0074FF"/>
        <rect x="13" y="7" width="1" height="1" fill="#0074FF"/><rect x="14" y="7" width="1" height="1" fill="#0074FF"/><rect x="16" y="7" width="1" height="1" fill="#0074FF"/>
        <rect x="0" y="8" width="1" height="1" fill="#0074FF"/><rect x="1" y="8" width="1" height="1" fill="#0074FF"/><rect x="3" y="8" width="1" height="1" fill="#0074FF"/><rect x="4" y="8" width="1" height="1" fill="#0074FF"/>
        <rect x="6" y="8" width="1" height="1" fill="#0074FF"/><rect x="9" y="8" width="1" height="1" fill="#0074FF"/><rect x="10" y="8" width="1" height="1" fill="#0074FF"/><rect x="11" y="8" width="1" height="1" fill="#0074FF"/>
        <rect x="14" y="8" width="1" height="1" fill="#0074FF"/><rect x="16" y="8" width="1" height="1" fill="#0074FF"/><rect x="18" y="8" width="1" height="1" fill="#0074FF"/><rect x="24" y="8" width="1" height="1" fill="#0074FF"/>
        <rect x="0" y="9" width="1" height="1" fill="#0074FF"/><rect x="1" y="9" width="1" height="1" fill="#0074FF"/><rect x="3" y="9" width="1" height="1" fill="#0074FF"/><rect x="5" y="9" width="1" height="1" fill="#0074FF"/>
        <rect x="9" y="9" width="1" height="1" fill="#0074FF"/><rect x="12" y="9" width="1" height="1" fill="#0074FF"/><rect x="13" y="9" width="1" height="1" fill="#0074FF"/><rect x="15" y="9" width="1" height="1" fill="#0074FF"/>
        <rect x="17" y="9" width="1" height="1" fill="#0074FF"/><rect x="19" y="9" width="1" height="1" fill="#0074FF"/><rect x="20" y="9" width="1" height="1" fill="#0074FF"/>
        <rect x="21" y="9" width="1" height="1" fill="#0074FF"/><rect x="22" y="9" width="1" height="1" fill="#0074FF"/><rect x="23" y="9" width="1" height="1" fill="#0074FF"/>
        <rect x="0" y="10" width="1" height="1" fill="#0074FF"/><rect x="1" y="10" width="1" height="1" fill="#0074FF"/><rect x="2" y="10" width="1" height="1" fill="#0074FF"/><rect x="3" y="10" width="1" height="1" fill="#0074FF"/>
        <rect x="5" y="10" width="1" height="1" fill="#0074FF"/><rect x="6" y="10" width="1" height="1" fill="#0074FF"/>
        <rect x="8" y="10" width="1" height="1" fill="#0074FF"/><rect x="10" y="10" width="1" height="1" fill="#0074FF"/><rect x="11" y="10" width="1" height="1" fill="#0074FF"/>
        <rect x="14" y="10" width="1" height="1" fill="#0074FF"/><rect x="15" y="10" width="1" height="1" fill="#0074FF"/><rect x="17" y="10" width="1" height="1" fill="#0074FF"/>
        <rect x="19" y="10" width="1" height="1" fill="#0074FF"/><rect x="20" y="10" width="1" height="1" fill="#0074FF"/><rect x="21" y="10" width="1" height="1" fill="#0074FF"/>
        <rect x="24" y="10" width="1" height="1" fill="#0074FF"/>
        <rect x="1" y="11" width="1" height="1" fill="#0074FF"/><rect x="2" y="11" width="1" height="1" fill="#0074FF"/><rect x="3" y="11" width="1" height="1" fill="#0074FF"/>
        <rect x="4" y="11" width="1" height="1" fill="#0074FF"/><rect x="5" y="11" width="1" height="1" fill="#0074FF"/>
        <rect x="9" y="11" width="1" height="1" fill="#0074FF"/><rect x="10" y="11" width="1" height="1" fill="#0074FF"/><rect x="11" y="11" width="1" height="1" fill="#0074FF"/>
        <rect x="12" y="11" width="1" height="1" fill="#0074FF"/><rect x="14" y="11" width="1" height="1" fill="#0074FF"/><rect x="18" y="11" width="1" height="1" fill="#0074FF"/>
        <rect x="21" y="11" width="1" height="1" fill="#0074FF"/><rect x="22" y="11" width="1" height="1" fill="#0074FF"/><rect x="23" y="11" width="1" height="1" fill="#0074FF"/><rect x="24" y="11" width="1" height="1" fill="#0074FF"/>
        <rect x="1" y="12" width="1" height="1" fill="#0074FF"/><rect x="3" y="12" width="1" height="1" fill="#0074FF"/><rect x="4" y="12" width="1" height="1" fill="#0074FF"/>
        <rect x="5" y="12" width="1" height="1" fill="#0074FF"/><rect x="6" y="12" width="1" height="1" fill="#0074FF"/>
        <rect x="8" y="12" width="1" height="1" fill="#0074FF"/><rect x="9" y="12" width="1" height="1" fill="#0074FF"/><rect x="11" y="12" width="1" height="1" fill="#0074FF"/>
        <rect x="12" y="12" width="1" height="1" fill="#0074FF"/><rect x="14" y="12" width="1" height="1" fill="#0074FF"/><rect x="16" y="12" width="1" height="1" fill="#0074FF"/>
        <rect x="18" y="12" width="1" height="1" fill="#0074FF"/><rect x="19" y="12" width="1" height="1" fill="#0074FF"/><rect x="24" y="12" width="1" height="1" fill="#0074FF"/>
        <rect x="0" y="13" width="1" height="1" fill="#0074FF"/><rect x="2" y="13" width="1" height="1" fill="#0074FF"/><rect x="4" y="13" width="1" height="1" fill="#0074FF"/>
        <rect x="5" y="13" width="1" height="1" fill="#0074FF"/><rect x="7" y="13" width="1" height="1" fill="#0074FF"/><rect x="14" y="13" width="1" height="1" fill="#0074FF"/>
        <rect x="15" y="13" width="1" height="1" fill="#0074FF"/><rect x="16" y="13" width="1" height="1" fill="#0074FF"/>
        <rect x="20" y="13" width="1" height="1" fill="#0074FF"/><rect x="23" y="13" width="1" height="1" fill="#0074FF"/>
        <rect x="0" y="14" width="1" height="1" fill="#0074FF"/><rect x="1" y="14" width="1" height="1" fill="#0074FF"/><rect x="3" y="14" width="1" height="1" fill="#0074FF"/>
        <rect x="5" y="14" width="1" height="1" fill="#0074FF"/><rect x="6" y="14" width="1" height="1" fill="#0074FF"/>
        <rect x="8" y="14" width="1" height="1" fill="#0074FF"/><rect x="9" y="14" width="1" height="1" fill="#0074FF"/><rect x="11" y="14" width="1" height="1" fill="#0074FF"/>
        <rect x="12" y="14" width="1" height="1" fill="#0074FF"/><rect x="14" y="14" width="1" height="1" fill="#0074FF"/><rect x="15" y="14" width="1" height="1" fill="#0074FF"/>
        <rect x="17" y="14" width="1" height="1" fill="#0074FF"/><rect x="20" y="14" width="1" height="1" fill="#0074FF"/>
        <rect x="21" y="14" width="1" height="1" fill="#0074FF"/><rect x="22" y="14" width="1" height="1" fill="#0074FF"/><rect x="23" y="14" width="1" height="1" fill="#0074FF"/><rect x="24" y="14" width="1" height="1" fill="#0074FF"/>
        <rect x="0" y="15" width="1" height="1" fill="#0074FF"/><rect x="4" y="15" width="1" height="1" fill="#0074FF"/><rect x="5" y="15" width="1" height="1" fill="#0074FF"/>
        <rect x="7" y="15" width="1" height="1" fill="#0074FF"/><rect x="8" y="15" width="1" height="1" fill="#0074FF"/><rect x="10" y="15" width="1" height="1" fill="#0074FF"/>
        <rect x="11" y="15" width="1" height="1" fill="#0074FF"/><rect x="14" y="15" width="1" height="1" fill="#0074FF"/><rect x="17" y="15" width="1" height="1" fill="#0074FF"/>
        <rect x="18" y="15" width="1" height="1" fill="#0074FF"/><rect x="19" y="15" width="1" height="1" fill="#0074FF"/><rect x="21" y="15" width="1" height="1" fill="#0074FF"/>
        <rect x="22" y="15" width="1" height="1" fill="#0074FF"/><rect x="24" y="15" width="1" height="1" fill="#0074FF"/>
        <rect x="0" y="16" width="1" height="1" fill="#0074FF"/><rect x="3" y="16" width="1" height="1" fill="#0074FF"/><rect x="5" y="16" width="1" height="1" fill="#0074FF"/>
        <rect x="6" y="16" width="1" height="1" fill="#0074FF"/><rect x="8" y="16" width="1" height="1" fill="#0074FF"/><rect x="10" y="16" width="1" height="1" fill="#0074FF"/>
        <rect x="13" y="16" width="1" height="1" fill="#0074FF"/><rect x="15" y="16" width="1" height="1" fill="#0074FF"/><rect x="16" y="16" width="1" height="1" fill="#0074FF"/>
        <rect x="17" y="16" width="1" height="1" fill="#0074FF"/><rect x="18" y="16" width="1" height="1" fill="#0074FF"/><rect x="19" y="16" width="1" height="1" fill="#0074FF"/>
        <rect x="20" y="16" width="1" height="1" fill="#0074FF"/><rect x="22" y="16" width="1" height="1" fill="#0074FF"/><rect x="23" y="16" width="1" height="1" fill="#0074FF"/>
        <rect x="8" y="17" width="1" height="1" fill="#0074FF"/><rect x="11" y="17" width="1" height="1" fill="#0074FF"/><rect x="12" y="17" width="1" height="1" fill="#0074FF"/>
        <rect x="13" y="17" width="1" height="1" fill="#0074FF"/><rect x="16" y="17" width="1" height="1" fill="#0074FF"/><rect x="20" y="17" width="1" height="1" fill="#0074FF"/>
        <rect x="22" y="17" width="1" height="1" fill="#0074FF"/><rect x="23" y="17" width="1" height="1" fill="#0074FF"/>
        <rect x="0" y="18" width="1" height="1" fill="#0074FF"/><rect x="1" y="18" width="1" height="1" fill="#0074FF"/><rect x="2" y="18" width="1" height="1" fill="#0074FF"/>
        <rect x="3" y="18" width="1" height="1" fill="#0074FF"/><rect x="4" y="18" width="1" height="1" fill="#0074FF"/><rect x="5" y="18" width="1" height="1" fill="#0074FF"/>
        <rect x="6" y="18" width="1" height="1" fill="#0074FF"/><rect x="10" y="18" width="1" height="1" fill="#0074FF"/><rect x="11" y="18" width="1" height="1" fill="#0074FF"/>
        <rect x="13" y="18" width="1" height="1" fill="#0074FF"/><rect x="16" y="18" width="1" height="1" fill="#0074FF"/><rect x="18" y="18" width="1" height="1" fill="#0074FF"/>
        <rect x="20" y="18" width="1" height="1" fill="#0074FF"/><rect x="24" y="18" width="1" height="1" fill="#0074FF"/>
        <rect x="0" y="19" width="1" height="1" fill="#0074FF"/><rect x="6" y="19" width="1" height="1" fill="#0074FF"/><rect x="9" y="19" width="1" height="1" fill="#0074FF"/>
        <rect x="12" y="19" width="1" height="1" fill="#0074FF"/><rect x="13" y="19" width="1" height="1" fill="#0074FF"/><rect x="15" y="19" width="1" height="1" fill="#0074FF"/>
        <rect x="16" y="19" width="1" height="1" fill="#0074FF"/><rect x="20" y="19" width="1" height="1" fill="#0074FF"/><rect x="23" y="19" width="1" height="1" fill="#0074FF"/>
        <rect x="0" y="20" width="1" height="1" fill="#0074FF"/><rect x="2" y="20" width="1" height="1" fill="#0074FF"/><rect x="3" y="20" width="1" height="1" fill="#0074FF"/>
        <rect x="4" y="20" width="1" height="1" fill="#0074FF"/><rect x="6" y="20" width="1" height="1" fill="#0074FF"/>
        <rect x="8" y="20" width="1" height="1" fill="#0074FF"/><rect x="10" y="20" width="1" height="1" fill="#0074FF"/><rect x="12" y="20" width="1" height="1" fill="#0074FF"/>
        <rect x="14" y="20" width="1" height="1" fill="#0074FF"/><rect x="15" y="20" width="1" height="1" fill="#0074FF"/><rect x="16" y="20" width="1" height="1" fill="#0074FF"/>
        <rect x="17" y="20" width="1" height="1" fill="#0074FF"/><rect x="18" y="20" width="1" height="1" fill="#0074FF"/><rect x="19" y="20" width="1" height="1" fill="#0074FF"/>
        <rect x="20" y="20" width="1" height="1" fill="#0074FF"/><rect x="23" y="20" width="1" height="1" fill="#0074FF"/><rect x="24" y="20" width="1" height="1" fill="#0074FF"/>
        <rect x="0" y="21" width="1" height="1" fill="#0074FF"/><rect x="2" y="21" width="1" height="1" fill="#0074FF"/><rect x="3" y="21" width="1" height="1" fill="#0074FF"/>
        <rect x="4" y="21" width="1" height="1" fill="#0074FF"/><rect x="6" y="21" width="1" height="1" fill="#0074FF"/>
        <rect x="8" y="21" width="1" height="1" fill="#0074FF"/><rect x="14" y="21" width="1" height="1" fill="#0074FF"/><rect x="17" y="21" width="1" height="1" fill="#0074FF"/>
        <rect x="18" y="21" width="1" height="1" fill="#0074FF"/><rect x="23" y="21" width="1" height="1" fill="#0074FF"/><rect x="24" y="21" width="1" height="1" fill="#0074FF"/>
        <rect x="0" y="22" width="1" height="1" fill="#0074FF"/><rect x="2" y="22" width="1" height="1" fill="#0074FF"/><rect x="3" y="22" width="1" height="1" fill="#0074FF"/>
        <rect x="4" y="22" width="1" height="1" fill="#0074FF"/><rect x="6" y="22" width="1" height="1" fill="#0074FF"/>
        <rect x="10" y="22" width="1" height="1" fill="#0074FF"/><rect x="12" y="22" width="1" height="1" fill="#0074FF"/><rect x="16" y="22" width="1" height="1" fill="#0074FF"/>
        <rect x="17" y="22" width="1" height="1" fill="#0074FF"/><rect x="20" y="22" width="1" height="1" fill="#0074FF"/>
        <rect x="21" y="22" width="1" height="1" fill="#0074FF"/><rect x="22" y="22" width="1" height="1" fill="#0074FF"/><rect x="23" y="22" width="1" height="1" fill="#0074FF"/><rect x="24" y="22" width="1" height="1" fill="#0074FF"/>
        <rect x="0" y="23" width="1" height="1" fill="#0074FF"/><rect x="6" y="23" width="1" height="1" fill="#0074FF"/>
        <rect x="8" y="23" width="1" height="1" fill="#0074FF"/><rect x="10" y="23" width="1" height="1" fill="#0074FF"/><rect x="14" y="23" width="1" height="1" fill="#0074FF"/>
        <rect x="17" y="23" width="1" height="1" fill="#0074FF"/><rect x="18" y="23" width="1" height="1" fill="#0074FF"/><rect x="19" y="23" width="1" height="1" fill="#0074FF"/>
        <rect x="20" y="23" width="1" height="1" fill="#0074FF"/><rect x="22" y="23" width="1" height="1" fill="#0074FF"/><rect x="23" y="23" width="1" height="1" fill="#0074FF"/><rect x="24" y="23" width="1" height="1" fill="#0074FF"/>
        <rect x="0" y="24" width="1" height="1" fill="#0074FF"/><rect x="1" y="24" width="1" height="1" fill="#0074FF"/><rect x="2" y="24" width="1" height="1" fill="#0074FF"/>
        <rect x="3" y="24" width="1" height="1" fill="#0074FF"/><rect x="4" y="24" width="1" height="1" fill="#0074FF"/><rect x="5" y="24" width="1" height="1" fill="#0074FF"/>
        <rect x="6" y="24" width="1" height="1" fill="#0074FF"/>
        <rect x="8" y="24" width="1" height="1" fill="#0074FF"/><rect x="10" y="24" width="1" height="1" fill="#0074FF"/><rect x="12" y="24" width="1" height="1" fill="#0074FF"/>
        <rect x="13" y="24" width="1" height="1" fill="#0074FF"/><rect x="14" y="24" width="1" height="1" fill="#0074FF"/><rect x="16" y="24" width="1" height="1" fill="#0074FF"/>
        <rect x="18" y="24" width="1" height="1" fill="#0074FF"/><rect x="21" y="24" width="1" height="1" fill="#0074FF"/><rect x="24" y="24" width="1" height="1" fill="#0074FF"/>
      </g>
    </g>
  </g>

  <!-- QR label -->
  <text x="857" y="480" font-family="Inter,Helvetica,Arial,sans-serif" font-size="9" fill="#64748B" letter-spacing="1" text-anchor="middle">SCAN ME</text>
  <text x="857" y="494" font-family="Inter,Helvetica,Arial,sans-serif" font-size="9" fill="#0074FF" letter-spacing="1" text-anchor="middle">aymanelmasry.me</text>

  <!-- Bottom divider -->
  <rect x="60" y="555" width="650" height="1" fill="#0074FF" opacity="0.15"/>

  <!-- Social row -->
  <text x="60" y="578" font-family="Inter,Helvetica,Arial,sans-serif" font-size="11" fill="#64748B">GitHub</text>
  <circle cx="124" cy="574" r="2" fill="#0074FF" opacity="0.4"/>
  <text x="136" y="578" font-family="Inter,Helvetica,Arial,sans-serif" font-size="11" fill="#64748B">LinkedIn</text>
  <circle cx="202" cy="574" r="2" fill="#0074FF" opacity="0.4"/>
  <text x="214" y="578" font-family="Inter,Helvetica,Arial,sans-serif" font-size="11" fill="#64748B">X</text>

  <text x="60" y="593" font-family="Inter,Helvetica,Arial,sans-serif" font-size="9" fill="#475569">@aymanelmasryael</text>
  <text x="136" y="593" font-family="Inter,Helvetica,Arial,sans-serif" font-size="9" fill="#475569">/in/aymanelmasryael</text>
  <text x="214" y="593" font-family="Inter,Helvetica,Arial,sans-serif" font-size="9" fill="#475569">@aymanelmasryael</text>

  <!-- Brand badge -->
  <rect x="800" y="555" width="190" height="28" rx="14" fill="none" stroke="#0074FF" stroke-width="0.5" opacity="0.3"/>
  <text x="895" y="574" font-family="Inter,Helvetica,Arial,sans-serif" font-size="8" fill="#0074FF" text-anchor="middle" letter-spacing="1" opacity="0.6">AEL DIGITAL STUDIO © 2026</text>
</svg>
